<svg id="Group_206" data-name="Group 206" xmlns="http://www.w3.org/2000/svg" width="320" height="128" viewBox="0 0 320 128">
  <g id="Group_3" data-name="Group 3">
    <rect id="Rectangle_3" data-name="Rectangle 3" width="320" height="128" fill="#006eff"/>
  </g>
  <path id="Path_197" data-name="Path 197" d="M4931.773,649.53v3.343h10.511V808.516l-36.534,17.6-36.533-17.6V652.873h10.51V649.53h-13.854V810.616l39.876,19.214,39.877-19.214V649.53Z" transform="translate(-561.685 4969.627) rotate(-90)" fill="#fff"/>
  <g id="Group_198" data-name="Group 198" transform="translate(51 44)">
    <path id="Path_198" data-name="Path 198" d="M5463.779,749.98c.14-.165.285-.325.432-.482h-.865C5463.494,749.655,5463.64,749.815,5463.779,749.98Z" transform="translate(-5419.62 -732.393)" fill="#fff"/>
    <path id="Path_199" data-name="Path 199" d="M5439.045,749.98c.139-.165.284-.325.432-.482h-.865C5438.761,749.655,5438.906,749.815,5439.045,749.98Z" transform="translate(-5397.967 -732.393)" fill="#fff"/>
    <path id="Path_200" data-name="Path 200" d="M5488.515,749.98c.139-.165.284-.325.432-.482h-.864C5488.229,749.655,5488.375,749.815,5488.515,749.98Z" transform="translate(-5441.272 -732.393)" fill="#fff"/>
    <path id="Path_201" data-name="Path 201" d="M5414.311,749.98c.14-.165.284-.325.432-.482h-.865C5414.025,749.655,5414.171,749.815,5414.311,749.98Z" transform="translate(-5376.314 -732.393)" fill="#fff"/>
    <path id="Path_203" data-name="Path 203" d="M5340.107,749.98c.139-.165.284-.325.432-.482h-.865C5339.822,749.655,5339.967,749.815,5340.107,749.98Z" transform="translate(-5311.359 -732.393)" fill="#fff"/>
    <path id="Path_204" data-name="Path 204" d="M5389.577,749.98c.139-.165.283-.325.432-.482h-.864C5389.291,749.655,5389.437,749.815,5389.577,749.98Z" transform="translate(-5354.663 -732.393)" fill="#fff"/>
    <path id="Path_205" data-name="Path 205" d="M5364.841,749.98c.14-.165.285-.325.433-.482h-.866C5364.557,749.655,5364.7,749.815,5364.841,749.98Z" transform="translate(-5333.01 -732.393)" fill="#fff"/>
  </g>
  <text id="AIR-ON.NET" transform="translate(107 76)" fill="#fff" font-size="31" font-family="Bahnschrift" font-weight="700"><tspan x="0" y="0">AIR-ON.NET</tspan></text>
</svg>
